inDegrees=no
num_controls=7
num_derivatives=13
num_iterations=69
num_multipliers=7
num_parameters=0
num_slacks=7
num_states=26
objective=0.333914
objective_accelerations=0.036965
objective_balance=0.001331
objective_effort=0.027167
objective_height=0.266976
objective_ligament=0.001475
solver_duration=800.688386
status=Solve_Succeeded
success=true
DataType=double
version=3
OpenSimVersion=4.5
endheader
time	/jointset/ground_pelvis/pelvis_tilt/value	/jointset/ground_pelvis/pelvis_tx/value	/jointset/ground_pelvis/pelvis_ty/value	/jointset/hip_r/hip_flexion_r/value	/jointset/hip_r/hip_adduction_r/value	/jointset/hip_r/hip_rotation_r/value	/jointset/back/lumbar_extension/value	/jointset/patellofemoral_r/patellar_flexion_r/value	/jointset/knee_r/knee_flexion_r/value	/jointset/knee_r/knee_adduction_r/value	/jointset/knee_r/knee_rotation_r/value	/jointset/ankle_r/ankle_angle_r/value	/jointset/subtalar_r/subtalar_angle_r/value	/jointset/ground_pelvis/pelvis_tilt/speed	/jointset/ground_pelvis/pelvis_tx/speed	/jointset/ground_pelvis/pelvis_ty/speed	/jointset/hip_r/hip_flexion_r/speed	/jointset/hip_r/hip_adduction_r/speed	/jointset/hip_r/hip_rotation_r/speed	/jointset/back/lumbar_extension/speed	/jointset/patellofemoral_r/patellar_flexion_r/speed	/jointset/knee_r/knee_flexion_r/speed	/jointset/knee_r/knee_adduction_r/speed	/jointset/knee_r/knee_rotation_r/speed	/jointset/ankle_r/ankle_angle_r/speed	/jointset/subtalar_r/subtalar_angle_r/speed	/forceset/tau_hip_flexion_r	/forceset/tau_hip_adduction_r	/forceset/tau_hip_rotation_r	/forceset/tau_knee_flexion_r	/forceset/tau_ankle_angle_r	/forceset/tau_subtalar_angle_r	/forceset/tau_lumbar_extension	lambda_cid13_p0	lambda_cid14_p0	lambda_cid14_p1	lambda_cid14_p2	lambda_cid14_p3	lambda_cid14_p4	lambda_cid14_p5	/jointset/ground_pelvis/pelvis_tilt/accel	/jointset/ground_pelvis/pelvis_tx/accel	/jointset/ground_pelvis/pelvis_ty/accel	/jointset/hip_r/hip_flexion_r/accel	/jointset/hip_r/hip_adduction_r/accel	/jointset/hip_r/hip_rotation_r/accel	/jointset/back/lumbar_extension/accel	/jointset/patellofemoral_r/patellar_flexion_r/accel	/jointset/knee_r/knee_flexion_r/accel	/jointset/knee_r/knee_adduction_r/accel	/jointset/knee_r/knee_rotation_r/accel	/jointset/ankle_r/ankle_angle_r/accel	/jointset/subtalar_r/subtalar_angle_r/accel	gamma_cid13_p0	gamma_cid14_p0	gamma_cid14_p1	gamma_cid14_p2	gamma_cid14_p3	gamma_cid14_p4	gamma_cid14_p5
0	-0.01124238757160735	0.1339173910129471	0.9325692965446291	0.1934211968871041	-0.2371559663404311	-0.2345701396438063	-0.2903787966825928	0.2311786273363378	0.2311786273363406	0.1525475192293177	0.1718535918436027	0.089344008118978	0.05265342070930856	0	0	0	0	0	0	0	0	0	0	0	0	0	0.1033408823087117	-0.0354360376211715	0.006593121620564722	-0.23866211450484	0.1142278846374531	-0.1283785474279087	-0.02580680652179886	-29.95365262252517	-11.60272083163162	-52.62818721004545	2.920437224929382	5.641243610739457	-611.6860296276089	15.937967994159	-2.074262782263529	-1.949626378502803	-0.8241191933924588	10.37968807246248	0.4144608578283677	2.262379215529543	-6.266623634254667	10.12073670630084	10.12073670630093	-3.463543836447693	0.2629365875108646	2.714506246479496	1.243538368688949	9.706357136006163e-08	7.224290208656434e-08	-5.921672146253687e-07	5.391524373096815e-07	1.451564212067815e-08	2.998368746440488e-07	-6.091102386096777e-07
0.01	-0.011340636603576	0.1338225285687534	0.9325291872325102	0.1939262727414368	-0.2371342063831401	-0.2344554656488914	-0.2906937734189294	0.2316754151819193	0.2316754151819174	0.1523747726042571	0.1718620515512456	0.08947932937437476	0.05271674303701168	-0.01962710829003826	-0.01873119295283219	-0.008010377055995176	0.1003893573910798	0.004170904069790604	0.0228846519405071	-0.06260207654948385	0.09888178065316487	0.09888178065316697	-0.03402463348003475	0.001699766621860846	0.02706966185043038	0.01244500872928678	0.1054018470793072	-0.05706115274660811	0.006047431104350542	-0.248124905800433	0.1261894872877833	-0.1149837711972201	-0.02602055843917106	-29.95824269791497	-7.067387119498941	-45.94716666580634	1.775838584793208	0.2423137430788793	-612.9678828987115	30.81839824963097	-1.903530877356482	-1.798668467431794	-0.7877141891754871	9.774691313400272	0.3912459897611991	2.294090798777532	-6.198009057742397	9.700511062670959	9.700511062671135	-3.293261614555109	0.1247743559759773	2.704019827927444	1.212033837648702	9.816230146680251e-08	5.322908744341574e-08	-5.998662257527802e-07	4.934276107201006e-07	3.244655194717723e-08	1.392942096177163e-07	-5.859087264571253e-07
0.02	-0.01163447592344082	0.13354759365228	0.932409330704337	0.1954164685178761	-0.237076169223518	-0.2341134286114807	-0.2916229727992504	0.233146743297598	0.2331467432975995	0.1518775119422791	0.1718877644564012	0.08988551198299399	0.05289792579452759	-0.03911805757939226	-0.03601449445593783	-0.01594944321088171	0.1970239844209424	0.007255440467846671	0.04547260849966632	-0.1228445287968664	0.1949080540201966	0.1949080540201965	-0.06490280739101875	0.003450639501809333	0.05417227064496785	0.02357208596258	0.1074628118499254	-0.07868626787202226	0.00550174058817253	-0.2575876970960118	0.1381510899381269	-0.1015889949665	-0.02623431035653966	-29.97168616997892	-2.452366499469141	-39.27740860497936	0.6618393446074163	-5.067785445828141	-612.9212173285449	45.34603068765717	-2.047030982126759	-1.660048088557412	-0.8098570131707343	9.628742000219034	0.197187323481461	2.203040139259969	-5.794698773834446	9.549635249074209	9.549635249073441	-2.834251922637547	0.2731578391283799	2.721095635301008	0.9799520694902663	9.926103157354338e-08	3.421527280026714e-08	-6.075652368801918e-07	4.477027841305196e-07	5.037746177367631e-08	-2.124845540861617e-08	-5.62707214304573e-07
0.03	-0.01212238768020325	0.1331053587342626	0.932210262568313	0.1978568240999104	-0.2369908257232712	-0.2335496191927217	-0.2931419989597851	0.2355646059416841	0.2355646059416915	0.1510828918233096	0.1719325219833511	0.09056143996763061	0.05318580037884209	-0.05838669277876595	-0.05236123028990677	-0.02386265952701575	0.2906407717900997	0.009853190427612749	0.06714266109111605	-0.1805308130989389	0.288222305753838	0.2882223057538333	-0.09397675270856386	0.005453764423468695	0.08088601488495809	0.03402414080807484	0.1013062814491735	-0.0805894482568674	0.006275390773110846	-0.2508072700709718	0.1279908358950411	-0.09510309715658882	-0.0212172218444336	-29.99354462487949	-5.386468162212044	-36.82494157941257	0.100219097573853	-3.754278916876199	-613.3512721565297	49.27292460713358	-1.855132958626868	-1.611287353994362	-0.781830169162508	9.167198552237597	0.2970549596600952	2.127084620801645	-5.691109726849022	9.15597492238577	9.155974922385608	-2.93734675169636	0.1569118483434297	2.627428835454132	1.080986220490815	1.192340114249552e-07	3.746315741341939e-08	-6.979288211054361e-07	5.825477563403749e-07	6.179390545237791e-08	-6.902245508145837e-08	-7.030134337590721e-07
